<svg width="80" height="14" viewBox="0 0 80 14" fill="none" xmlns="http://www.w3.org/2000/svg">
<path d="M12.2803 13H8.81738L3.22754 3.2793H3.14844C3.25977 4.99609 3.31543 6.2207 3.31543 6.95312V13H0.880859V0.150391H4.31738L9.89844 9.77441H9.95996C9.87207 8.10449 9.82812 6.92383 9.82812 6.23242V0.150391H12.2803V13ZM22.9238 13H15.5234V0.150391H22.9238V2.38281H18.248V5.2041H22.5986V7.43652H18.248V10.75H22.9238V13ZM30.5703 13H27.8457V2.41797H24.3564V0.150391H34.0596V2.41797H30.5703V13Z" fill="white"/>
<path d="M38.7178 13H36.0371V0.150391H43.4023V2.38281H38.7178V5.69629H43.0771V7.91992H38.7178V13ZM45.916 13V0.150391H48.6406V10.75H53.8525V13H45.916ZM66.4648 0.150391V8.46484C66.4648 9.41406 66.251 10.2461 65.8232 10.9609C65.4014 11.6758 64.7891 12.2236 63.9863 12.6045C63.1836 12.9854 62.2344 13.1758 61.1387 13.1758C59.4863 13.1758 58.2031 12.7539 57.2891 11.9102C56.375 11.0605 55.918 9.90039 55.918 8.42969V0.150391H58.6338V8.0166C58.6338 9.00684 58.833 9.7334 59.2314 10.1963C59.6299 10.6592 60.2891 10.8906 61.209 10.8906C62.0996 10.8906 62.7441 10.6592 63.1426 10.1963C63.5469 9.72754 63.749 8.99512 63.749 7.99902V0.150391H66.4648ZM80 13H76.8887L73.9004 8.13965L70.9121 13H67.9941L72.2568 6.37305L68.2666 0.150391H71.2725L74.041 4.77344L76.7568 0.150391H79.6924L75.6582 6.52246L80 13Z" fill="#E6B31E"/>
</svg>